<svg height="496pt" viewBox="0 0 496 496" width="496pt" xmlns="http://www.w3.org/2000/svg"><path d="m248 41.359375c-114.125 0-206.640625 92.515625-206.640625 206.640625s92.515625 206.640625 206.640625 206.640625 206.640625-92.515625 206.640625-206.640625c.027344-114.136719-92.503906-206.667969-206.640625-206.640625zm86.078125 218.320313c-3.070313 3.140624-7.285156 4.898437-11.679687 4.878906h-49.597657v-16.558594c0 13.695312-11.105469 24.800781-24.800781 24.800781s-24.800781-11.105469-24.800781-24.800781 11.105469-24.800781 24.800781-24.800781h-16.558594v-107.4375c.015625-9.140625 7.421875-16.542969 16.558594-16.5625 9.121094.058593 16.503906 7.4375 16.558594 16.5625v107.4375h-16.558594c13.695312 0 24.800781 11.105469 24.800781 24.800781v-16.558594h49.597657c9.140624.015625 16.542968 7.421875 16.5625 16.558594.019531 4.394531-1.742188 8.605469-4.882813 11.679688zm0 0" fill="#57a4ff"/><path d="m248 41.359375c-114.125 0-206.640625 92.515625-206.640625 206.640625s92.515625 206.640625 206.640625 206.640625 206.640625-92.515625 206.640625-206.640625c.027344-114.136719-92.503906-206.667969-206.640625-206.640625zm86.078125 218.320313c-3.070313 3.140624-7.285156 4.898437-11.679687 4.878906h-49.597657v-16.558594c0 13.695312-11.105469 24.800781-24.800781 24.800781s-24.800781-11.105469-24.800781-24.800781 11.105469-24.800781 24.800781-24.800781h-16.558594v-107.4375c.015625-9.140625 7.421875-16.542969 16.558594-16.5625 9.121094.058593 16.503906 7.4375 16.558594 16.5625v107.4375h-16.558594c13.695312 0 24.800781 11.105469 24.800781 24.800781v-16.558594h49.597657c9.140624.015625 16.542968 7.421875 16.5625 16.558594.019531 4.394531-1.742188 8.605469-4.882813 11.679688zm0 0" fill="#57a4ff"/><g fill="#004fac"><path d="m248 0c-136.964844 0-248 111.035156-248 248s111.035156 248 248 248 248-111.035156 248-248c-.15625-136.902344-111.097656-247.84375-248-248zm0 480c-128.128906 0-232-103.871094-232-232s103.871094-232 232-232 232 103.871094 232 232c-.144531 128.070312-103.929688 231.855469-232 232zm0 0"/><path d="m395.382812 101.382812c-.125-.144531-.167968-.328124-.304687-.460937-.132813-.136719-.316406-.179687-.460937-.304687-81.039063-80.820313-212.195313-80.820313-293.234376 0-.144531.125-.328124.167968-.460937.304687-.136719.132813-.179687.316406-.304687.460937-80.820313 81.039063-80.820313 212.195313 0 293.234376.125.144531.167968.328124.304687.460937.132813.136719.316406.179687.460937.304687 81.039063 80.820313 212.195313 80.820313 293.234376 0 .144531-.125.328124-.167968.460937-.304687.136719-.132813.179687-.316406.304687-.460937 80.820313-81.039063 80.820313-212.195313 0-293.234376zm28.617188 154.617188h15.800781c-1.859375 45.351562-19.789062 88.5625-50.578125 121.910156l-16.796875-16.796875c-3.140625-3.03125-8.128906-2.988281-11.214843.097657-3.085938 3.085937-3.128907 8.074218-.097657 11.214843l16.796875 16.796875c-33.347656 30.789063-76.558594 48.71875-121.910156 50.578125v-15.800781c0-4.417969-3.582031-8-8-8s-8 3.582031-8 8v15.800781c-45.351562-1.859375-88.5625-19.789062-121.910156-50.578125l16.796875-16.796875c3.03125-3.140625 2.988281-8.128906-.097657-11.214843-3.085937-3.085938-8.074218-3.128907-11.214843-.097657l-16.796875 16.796875c-30.789063-33.347656-48.71875-76.558594-50.578125-121.910156h15.800781c4.417969 0 8-3.582031 8-8s-3.582031-8-8-8h-15.800781c1.859375-45.351562 19.789062-88.5625 50.578125-121.910156l16.796875 16.796875c3.140625 3.03125 8.128906 2.988281 11.214843-.097657 3.085938-3.085937 3.128907-8.074218.097657-11.214843l-16.796875-16.796875c33.347656-30.789063 76.558594-48.71875 121.910156-50.578125v15.800781c0 4.417969 3.582031 8 8 8s8-3.582031 8-8v-15.800781c45.351562 1.859375 88.5625 19.789062 121.910156 50.578125l-16.796875 16.796875c-2.082031 2.011719-2.914062 4.984375-2.183593 7.78125.734374 2.796875 2.917968 4.980469 5.714843 5.714843 2.796875.730469 5.769531-.101562 7.78125-2.183593l16.796875-16.796875c30.789063 33.347656 48.71875 76.558594 50.578125 121.910156h-15.800781c-4.417969 0-8 3.582031-8 8s3.582031 8 8 8zm0 0"/><path d="m320 224h-48v-104c0-13.253906-10.746094-24-24-24s-24 10.746094-24 24v104c.03125.839844.199219 1.667969.496094 2.457031-11.59375 12.574219-11.199219 32.058594.894531 44.152344s31.578125 12.488281 44.152344.894531c.789062.296875 1.617187.464844 2.457031.496094h48c13.253906 0 24-10.746094 24-24s-10.746094-24-24-24zm-80-104c0-4.417969 3.582031-8 8-8s8 3.582031 8 8v96h-16zm8 144c-8.835938 0-16-7.164062-16-16s7.164062-16 16-16 16 7.164062 16 16-7.164062 16-16 16zm72-8h-40v-16h40c4.417969 0 8 3.582031 8 8s-3.582031 8-8 8zm0 0"/><path d="m146.34375 338.34375-8 8c-2.078125 2.007812-2.914062 4.984375-2.179688 7.78125.730469 2.796875 2.914063 4.980469 5.710938 5.710938 2.796875.734374 5.773438-.101563 7.78125-2.179688l8-8c3.03125-3.140625 2.988281-8.128906-.097656-11.214844-3.085938-3.085937-8.074219-3.128906-11.214844-.097656zm0 0"/><path d="m404.480469 241.359375c-.445313-.300781-.929688-.542969-1.441407-.71875-.453124-.230469-.9375-.394531-1.4375-.480469-1.558593-.332031-3.183593-.164062-4.640624.480469-.96875.40625-1.863282.972656-2.640626 1.679687-1.460937 1.53125-2.289062 3.5625-2.320312 5.679688.011719 1.046875.230469 2.078125.640625 3.039062.40625.96875.976563 1.863282 1.679687 2.640626 2.289063 2.289062 5.742188 2.957031 8.71875 1.679687.96875-.40625 1.863282-.972656 2.640626-1.679687.703124-.777344 1.273437-1.671876 1.679687-2.640626.449219-.949218.667969-1.988281.640625-3.039062-.03125-2.117188-.859375-4.148438-2.320312-5.679688-.378907-.34375-.78125-.664062-1.199219-.960937zm0 0"/></g></svg>